<svg width="123" height="33" viewBox="0 0 123 33" fill="none" xmlns="http://www.w3.org/2000/svg">
<path d="M16.2843 8.12687C17.6688 8.9162 18.7658 10.0362 19.5752 11.4869C20.3846 12.9375 20.7893 14.6229 20.7893 16.5429C20.7893 18.4629 20.3846 20.1482 19.5752 21.5989C18.7658 23.0495 17.6688 24.1695 16.2843 24.9589C14.8997 25.7482 13.3661 26.1429 11.6727 26.1429C9.50004 26.1429 7.7747 25.4922 6.49667 24.1909L6.49667 32.5002H0L0 7.35887H6.19846V9.1082C7.41259 7.6682 9.23379 6.94287 11.6833 6.94287C13.3767 6.94287 14.9104 7.33754 16.2843 8.12687ZM13.1211 19.7855C13.856 18.9962 14.2181 17.9189 14.2181 16.5429C14.2181 15.1669 13.856 14.0895 13.1211 13.3002C12.3863 12.5109 11.449 12.1162 10.3095 12.1162C9.16988 12.1162 8.23266 12.5109 7.49779 13.3002C6.76292 14.0895 6.40081 15.1669 6.40081 16.5429C6.40081 17.9189 6.76292 18.9962 7.49779 19.7855C8.23266 20.5749 9.15924 20.9695 10.3095 20.9695C11.449 20.9695 12.3863 20.5749 13.1211 19.7855Z" fill="#1C34F3"/>
<path d="M23.1211 0.5L29.6284 0.5V25.9613H23.1211V0.5Z" fill="#1C34F3"/>
<path d="M81.7954 7.68932C82.8604 7.26265 84.0745 7.04932 85.4484 7.04932V12.916C84.852 12.852 84.3621 12.8093 83.9787 12.8093C82.5835 12.8093 81.4972 13.1826 80.709 13.94C79.9209 14.6973 79.5269 15.8493 79.5269 17.4066V25.9506H73.0195V7.35865H79.218V9.58798C79.8783 8.74532 80.741 8.11598 81.7954 7.68932Z" fill="#1C34F3"/>
<path d="M103.17 9.04398C104.8 10.4626 105.62 12.628 105.62 15.5613V25.9613H99.5173V23.54C98.5694 25.364 96.7376 26.2706 94.0004 26.2706C92.552 26.2706 91.2953 26.0146 90.2409 25.5133C89.1865 25.012 88.3877 24.3186 87.8446 23.4546C87.3014 22.5906 87.0352 21.6093 87.0352 20.5C87.0352 18.7293 87.7168 17.3533 89.0694 16.372C90.4219 15.3906 92.52 14.9 95.3424 14.9H99.07C98.9528 12.916 97.6322 11.924 95.1081 11.924C94.2134 11.924 93.2975 12.0733 92.3816 12.3506C91.4657 12.6386 90.6776 13.0333 90.0385 13.5453L87.8339 9.08664C88.867 8.39331 90.1237 7.85998 91.6148 7.47598C93.0952 7.09198 94.5862 6.91064 96.0772 6.91064C99.1658 6.92131 101.541 7.62531 103.17 9.04398ZM97.8239 21.5666C98.399 21.1933 98.8144 20.66 99.07 19.9453V18.324H96.237C94.3306 18.324 93.3721 18.9533 93.3721 20.2226C93.3721 20.7986 93.5957 21.2573 94.0324 21.6093C94.4691 21.9506 95.0655 22.132 95.8216 22.132C96.5778 22.1213 97.2488 21.94 97.8239 21.5666Z" fill="#1C34F3"/>
<path d="M108.121 0.5L114.628 0.5V25.9613H108.121V0.5Z" fill="#1C34F3"/>
<path d="M123 22.8146C123 21.1506 121.658 19.8066 119.997 19.8066C118.836 19.8066 117.824 20.468 117.334 21.4386C117.281 21.5346 117.238 21.6306 117.206 21.7373C117.196 21.7586 117.196 21.7693 117.185 21.7906C117.153 21.876 117.132 21.9613 117.1 22.0573C117.089 22.0786 117.089 22.1106 117.078 22.132C117.057 22.2173 117.047 22.3026 117.036 22.388C117.036 22.42 117.025 22.4413 117.025 22.4733C117.015 22.5906 117.004 22.6973 117.004 22.8146C117.004 24.4786 118.346 25.8226 120.007 25.8226C120.124 25.8226 120.242 25.812 120.359 25.8013C120.391 25.8013 120.423 25.7906 120.455 25.7906C120.54 25.78 120.625 25.7586 120.71 25.7373C120.742 25.7266 120.774 25.716 120.806 25.716C120.902 25.6946 120.987 25.6626 121.072 25.6306C121.094 25.62 121.104 25.62 121.126 25.6093C121.232 25.5666 121.339 25.5133 121.445 25.46C122.372 24.9373 123 23.956 123 22.8146Z" fill="#F7BF34"/>
<path d="M60.7916 9.73754C60.7916 9.5242 60.8023 9.28954 60.8342 9.0442C60.8342 9.00154 60.8449 8.9482 60.8555 8.90554L60.8662 8.86287C60.8875 8.68154 60.9194 8.51087 60.962 8.35087C60.9727 8.29754 60.9833 8.25487 60.994 8.2122C61.0472 8.0202 61.1005 7.83887 61.1644 7.6682L61.175 7.64687C61.1857 7.61487 61.1963 7.59354 61.207 7.56154C61.2815 7.3802 61.3561 7.19887 61.4413 7.0282C61.0366 6.97487 60.6425 6.95354 60.2485 6.95354C57.6924 6.95354 55.2854 7.9562 53.4749 9.76954L50.9082 12.3189L50.8975 12.3082L47.0208 16.1909L46.6693 16.5535L44.1239 19.1029C43.9535 19.2735 43.7618 19.4335 43.5595 19.5615L43.5275 19.5722L43.5062 19.5935C42.9311 19.9562 42.2601 20.1482 41.5785 20.1482C40.8543 20.1482 40.162 19.9349 39.5656 19.5295C38.5751 18.8575 37.9787 17.7375 37.9787 16.5429C37.9787 15.5295 38.3834 14.6015 39.1289 13.9082C39.7999 13.2895 40.6626 12.9375 41.5785 12.9375C42.537 12.9375 43.4423 13.3109 44.1239 13.9935L44.8162 14.6869L49.0444 10.4522L48.3521 9.75887C46.5415 7.94554 44.1346 6.94287 41.5785 6.94287C39.1502 6.94287 36.8285 7.8602 35.0499 9.51354L35.0392 9.5242C33.1115 11.3375 32.0039 13.8869 32.0039 16.5322C32.0039 19.7109 33.5695 22.6655 36.1895 24.4575L36.2108 24.4682L36.3386 24.5642H36.3705C37.9255 25.5775 39.736 26.1215 41.5998 26.1215C43.3997 26.1215 45.1464 25.6202 46.6693 24.6602L46.7971 24.5749C47.3616 24.2122 47.8941 23.7749 48.3734 23.3055L49.6301 22.0469L49.6408 22.0362C49.6621 22.0149 49.6834 22.0042 49.7047 21.9829L57.703 13.9722C58.3847 13.2895 59.2899 12.9162 60.2485 12.9162C60.8342 12.9162 61.42 13.0655 61.9418 13.3429L62.091 13.4282C61.2709 12.4362 60.7916 11.1349 60.7916 9.73754Z" fill="#1C34F3"/>
<path d="M66.8318 13.1827C66.9596 13.1827 67.0874 13.1721 67.2365 13.1614C67.2685 13.1614 67.3004 13.1507 67.3324 13.1507H67.3537C67.4495 13.1401 67.556 13.1187 67.6412 13.0974C67.6838 13.0867 67.7158 13.0761 67.7477 13.0654C67.8542 13.0334 67.9607 13.0014 68.0566 12.9587H68.0672C68.0885 12.9481 68.0992 12.9481 68.1205 12.9374C68.2483 12.8841 68.3761 12.8307 68.4932 12.7667C69.5902 12.1587 70.2718 11.0067 70.2718 9.74807C70.2718 7.8494 68.7275 6.30273 66.8318 6.30273C65.5431 6.30273 64.3716 7.0174 63.7752 8.1694C63.7219 8.27607 63.6687 8.3934 63.6261 8.51073C63.6154 8.5214 63.6154 8.54273 63.6048 8.5534V8.56407C63.5728 8.66007 63.5409 8.76673 63.5089 8.8734C63.4983 8.89473 63.4982 8.92673 63.4876 8.95873C63.4663 9.05473 63.445 9.15073 63.4343 9.24673V9.26807C63.4343 9.2894 63.4237 9.3214 63.4237 9.34273C63.4024 9.4814 63.4024 9.6094 63.4024 9.7374C63.3917 11.6361 64.936 13.1827 66.8318 13.1827Z" fill="#F7BF34"/>
<path d="M67.4371 15.5718C65.8502 15.0492 64.1355 15.9238 63.6136 17.5132C63.3154 18.4092 62.7083 19.1558 61.8776 19.6145C61.7605 19.6785 61.6327 19.7425 61.5049 19.7958L61.4197 19.8278C61.3131 19.8705 61.196 19.9132 61.0788 19.9452C61.0362 19.9558 60.9936 19.9665 60.9617 19.9772C60.8658 19.9985 60.7593 20.0198 60.6422 20.0412L60.557 20.0518C60.5463 20.0518 60.525 20.0518 60.5144 20.0625C60.344 20.0838 60.2055 20.0945 60.0777 20.0945C58.789 20.0945 57.6601 19.4332 56.9891 18.4412L52.6758 22.7612C54.465 24.8412 57.1276 26.1638 60.0777 26.1638C60.4505 26.1638 60.8232 26.1425 61.2279 26.0892C61.3451 26.0785 61.4516 26.0572 61.5368 26.0465H61.5688C61.8457 26.0038 62.1226 25.9505 62.3888 25.8865C62.4953 25.8652 62.6018 25.8332 62.6977 25.8012C62.9852 25.7265 63.2621 25.6305 63.5391 25.5238C63.6136 25.4918 63.6882 25.4705 63.7521 25.4385C64.1142 25.2892 64.4656 25.1292 64.7958 24.9372C66.9684 23.7318 68.5873 21.7692 69.3541 19.4118C69.8973 17.8118 69.0239 16.0945 67.4371 15.5718Z" fill="#F7BF34"/>
</svg>
